# xmcd
#
# Track frame offsets: 
#        150
#        45277
#        71521
#        119344
#        157813
#        199936
#        245913
#        287589
#        318664
#
# Disc length: 4407 seconds
#
# Revision: 2
# Processed by: cddbd v1.5.2PL0 Copyright (c) Steve Scherf et al.
# Submitted via: ExactAudioCopy v0.99pb4
#
DISCID=7e113509
DTITLE=Chick Corea - Five Trios [CD3] - Chillin' In Chelan
DYEAR=2007
DGENRE=Jazz
TTITLE0=Summer Night
TTITLE1=Think Of One
TTITLE2=Sophisticated Lady
TTITLE3=Windows
TTITLE4=Monk's Mood
TTITLE5=Fingerprints
TTITLE6=Dusk In Sandi
TTITLE7=Walkin'
TTITLE8=Drums
EXTD=YEAR: 2007
EXTT0=
EXTT1=
EXTT2=
EXTT3=
EXTT4=
EXTT5=
EXTT6=
EXTT7=
EXTT8=
PLAYORDER=
